<svg width="40" height="41" viewBox="0 0 40 41" fill="none" xmlns="http://www.w3.org/2000/svg">
<g filter="url(#filter0_d_277_4347)">
<circle cx="20" cy="20" r="20" fill="white"/>
<circle cx="20" cy="20" r="19.25" stroke="#020605" stroke-width="1.5"/>
</g>
<path d="M22.1861 11.3006L22.1863 11.3C22.2175 11.1773 22.2889 11.0685 22.3891 10.9912C22.4893 10.9138 22.6126 10.8723 22.7391 10.8732L22.1861 11.3006ZM22.1861 11.3006L21.8236 12.7524C21.8236 12.7524 21.8236 12.7525 21.8236 12.7525C21.279 14.9309 20.0343 16.8697 18.2808 18.2725L18.2808 18.2725M22.1861 11.3006L18.2808 18.2725M18.2808 18.2725L15.9324 20.1516C15.8717 20.1963 15.8206 20.2527 15.782 20.3174C15.7427 20.3832 15.7173 20.4563 15.7071 20.5322C15.6969 20.6082 15.7022 20.6854 15.7228 20.7593C15.7433 20.8331 15.7787 20.902 15.8266 20.9617C15.8745 21.0215 15.9341 21.0709 16.0017 21.1071C16.0694 21.1432 16.1436 21.1651 16.2198 21.1716C16.2962 21.1782 16.3731 21.1692 16.4458 21.1451C16.5173 21.1215 16.5834 21.084 16.6402 21.0345L18.9884 19.1571L18.9885 19.1571M18.2808 18.2725L18.9885 19.1571M18.9885 19.1571C20.9266 17.6066 22.3037 15.4653 22.9127 13.0599L23.1941 13.6216L18.9885 19.1571ZM23.1942 13.6217C24.2603 15.754 24.549 18.1904 24.0129 20.5134L24.0129 20.5135L23.6415 22.1286C23.6207 22.2013 23.6147 22.2774 23.6238 22.3524C23.633 22.4291 23.6579 22.5031 23.6968 22.5698C23.7358 22.6366 23.7879 22.6946 23.8501 22.7404C23.9123 22.7862 23.9832 22.8188 24.0585 22.8362C24.1337 22.8536 24.2118 22.8554 24.2878 22.8415C24.3638 22.8276 24.4362 22.7983 24.5004 22.7554C24.5647 22.7125 24.6194 22.6568 24.6614 22.592C24.7025 22.5285 24.7304 22.4574 24.7435 22.383L25.1165 20.7678L25.1165 20.7678C25.7117 18.1885 25.3892 15.4828 24.2054 13.1151L23.2414 11.1854L23.2412 11.1851C23.1944 11.0919 23.1227 11.0135 23.0341 10.9584C22.9455 10.9034 22.8435 10.8739 22.7392 10.8732L23.1942 13.6217Z" fill="black" stroke="black" stroke-width="0.3"/>
<g filter="url(#filter1_d_277_4347)">
<path d="M19.8213 23.0922C19.8213 24.5271 19.2512 25.9034 18.2365 26.918C17.2218 27.9327 15.8456 28.5028 14.4106 28.5028C12.9756 28.5028 11.5994 27.9327 10.5847 26.918C9.57005 25.9034 9 24.5271 9 23.0922C9 21.6572 9.57005 20.2809 10.5847 19.2663C11.5994 18.2516 12.9756 17.6815 14.4106 17.6815C15.8456 17.6815 17.2218 18.2516 18.2365 19.2663C19.2512 20.2809 19.8213 21.6572 19.8213 23.0922Z" fill="#FF766C"/>
<path d="M19.3213 23.0922C19.3213 24.3945 18.8039 25.6436 17.883 26.5645C16.962 27.4854 15.713 28.0028 14.4106 28.0028C13.1083 28.0028 11.8592 27.4854 10.9383 26.5645C10.0174 25.6436 9.5 24.3945 9.5 23.0922C9.5 21.7898 10.0174 20.5407 10.9383 19.6198C11.8592 18.6989 13.1083 18.1815 14.4106 18.1815C15.713 18.1815 16.962 18.6989 17.883 19.6198C18.8039 20.5407 19.3213 21.7898 19.3213 23.0922Z" stroke="black"/>
</g>
<path fill-rule="evenodd" clip-rule="evenodd" d="M24 11.5106C24 11.5106 21.8539 8.73386 20.2166 8.18433C18.5793 7.63468 15 8.48941 15 8.48941C15 8.48941 17.1461 11.2661 18.7834 11.8157C20.4207 12.3653 24 11.5106 24 11.5106Z" fill="black"/>
<path fill-rule="evenodd" clip-rule="evenodd" d="M22 11.5106C22 11.5106 23.9077 8.734 25.363 8.18439C26.8184 7.63465 30 8.48931 30 8.48931C30 8.48931 28.0923 11.2661 26.637 11.8157C25.1816 12.3653 22 11.5106 22 11.5106Z" fill="black"/>
<g filter="url(#filter2_d_277_4347)">
<path d="M28.8213 27.4106C28.8213 28.8456 28.2512 30.2218 27.2365 31.2365C26.2218 32.2512 24.8456 32.8213 23.4106 32.8213C21.9756 32.8213 20.5994 32.2512 19.5847 31.2365C18.57 30.2218 18 28.8456 18 27.4106C18 25.9756 18.57 24.5994 19.5847 23.5847C20.5994 22.57 21.9756 22 23.4106 22C24.8456 22 26.2218 22.57 27.2365 23.5847C28.2512 24.5994 28.8213 25.9756 28.8213 27.4106Z" fill="#FF766C"/>
<path d="M28.3213 27.4106C28.3213 28.713 27.8039 29.962 26.883 30.883C25.962 31.8039 24.713 32.3213 23.4106 32.3213C22.1083 32.3213 20.8592 31.8039 19.9383 30.883C19.0174 29.962 18.5 28.713 18.5 27.4106C18.5 26.1083 19.0174 24.8592 19.9383 23.9383C20.8592 23.0174 22.1083 22.5 23.4106 22.5C24.713 22.5 25.962 23.0174 26.883 23.9383C27.8039 24.8592 28.3213 26.1083 28.3213 27.4106Z" stroke="black"/>
</g>
<defs>
<filter id="filter0_d_277_4347" x="0" y="0" width="40" height="41" filterUnits="userSpaceOnUse" color-interpolation-filters="sRGB">
<feFlood flood-opacity="0" result="BackgroundImageFix"/>
<feColorMatrix in="SourceAlpha" type="matrix" values="0 0 0 0 0 0 0 0 0 0 0 0 0 0 0 0 0 0 127 0" result="hardAlpha"/>
<feOffset dy="1"/>
<feComposite in2="hardAlpha" operator="out"/>
<feColorMatrix type="matrix" values="0 0 0 0 0.00784314 0 0 0 0 0.0235294 0 0 0 0 0.0196078 0 0 0 1 0"/>
<feBlend mode="normal" in2="BackgroundImageFix" result="effect1_dropShadow_277_4347"/>
<feBlend mode="normal" in="SourceGraphic" in2="effect1_dropShadow_277_4347" result="shape"/>
</filter>
<filter id="filter1_d_277_4347" x="9" y="17.6815" width="10.8213" height="11.8213" filterUnits="userSpaceOnUse" color-interpolation-filters="sRGB">
<feFlood flood-opacity="0" result="BackgroundImageFix"/>
<feColorMatrix in="SourceAlpha" type="matrix" values="0 0 0 0 0 0 0 0 0 0 0 0 0 0 0 0 0 0 127 0" result="hardAlpha"/>
<feOffset dy="1"/>
<feComposite in2="hardAlpha" operator="out"/>
<feColorMatrix type="matrix" values="0 0 0 0 0 0 0 0 0 0 0 0 0 0 0 0 0 0 1 0"/>
<feBlend mode="normal" in2="BackgroundImageFix" result="effect1_dropShadow_277_4347"/>
<feBlend mode="normal" in="SourceGraphic" in2="effect1_dropShadow_277_4347" result="shape"/>
</filter>
<filter id="filter2_d_277_4347" x="18" y="22" width="10.8213" height="11.8213" filterUnits="userSpaceOnUse" color-interpolation-filters="sRGB">
<feFlood flood-opacity="0" result="BackgroundImageFix"/>
<feColorMatrix in="SourceAlpha" type="matrix" values="0 0 0 0 0 0 0 0 0 0 0 0 0 0 0 0 0 0 127 0" result="hardAlpha"/>
<feOffset dy="1"/>
<feComposite in2="hardAlpha" operator="out"/>
<feColorMatrix type="matrix" values="0 0 0 0 0 0 0 0 0 0 0 0 0 0 0 0 0 0 1 0"/>
<feBlend mode="normal" in2="BackgroundImageFix" result="effect1_dropShadow_277_4347"/>
<feBlend mode="normal" in="SourceGraphic" in2="effect1_dropShadow_277_4347" result="shape"/>
</filter>
</defs>
</svg>
