<svg width="227" height="108" viewBox="0 0 227 108" fill="none" xmlns="http://www.w3.org/2000/svg">
<g filter="url(#filter0_d_277_2908)">
<path fill-rule="evenodd" clip-rule="evenodd" d="M214.323 3H12.6767C7.3545 3 3 4.555 3 6.45961V99.5456C3 101.445 7.3545 103 12.6767 103H214.323C219.645 103 224 101.445 224 99.5456V6.45961C224 4.555 219.645 3 214.323 3Z" fill="#876355"/>
<path d="M214.323 1.5H12.6767C9.88875 1.5 7.29132 1.90487 5.3377 2.60307C4.36748 2.94982 3.47565 3.39723 2.7976 3.96796C2.12788 4.53168 1.5 5.36721 1.5 6.45961V99.5456C1.5 100.638 2.12947 101.473 2.79861 102.035C3.47653 102.605 4.36813 103.051 5.33817 103.398C7.29149 104.095 9.8887 104.5 12.6767 104.5H214.323C217.111 104.5 219.708 104.095 221.662 103.398C222.632 103.051 223.523 102.605 224.201 102.035C224.871 101.473 225.5 100.638 225.5 99.5456V6.45961C225.5 5.3672 224.872 4.53168 224.202 3.96796C223.524 3.39723 222.633 2.94982 221.662 2.60307C219.709 1.90487 217.111 1.5 214.323 1.5Z" stroke="black" stroke-width="3"/>
</g>
<path fill-rule="evenodd" clip-rule="evenodd" d="M210.564 5H16.4362C11.2556 5 7 6.49122 7 8.3195V97.6805C7 99.5037 11.2371 101 16.4362 101H210.564C215.744 101 220 99.5088 220 97.6805V8.3195C220 6.49122 215.744 5 210.564 5Z" fill="#876355"/>
<path fill-rule="evenodd" clip-rule="evenodd" d="M212.3 11.9497H13.7716C10.4474 11.9497 7.71735 14.9308 7.71735 18.5961C7.71735 22.3755 7.71735 25.6987 7.71735 28.8264V35.9616L28.8888 38.1282L7.71735 40.1645V57.7906C7.71735 59.941 10.0574 65.8055 11.3388 70.383L112.813 73.1361L11.7474 76.72L7.71735 89.6219C6.64021 93.0755 10.4474 96.2684 13.7716 96.2684H212.3C215.624 96.2684 218.354 93.2872 218.354 89.6219V76.3942L208.5 71L218.354 65.5V43.2922L215.792 32.7035L218.354 18.5961C219.784 10.6627 215.662 10.2392 212.3 11.9497ZM23.4845 92.7008C20.1602 92.7008 17.4859 91.1695 17.4859 89.2961C17.4859 87.4227 20.1788 85.8914 23.4845 85.8914C26.8088 85.8914 29.5016 87.4227 29.5016 89.2961C29.4831 91.1695 26.8088 92.7008 23.4845 92.7008ZM194.657 27.4092C193.264 27.4092 192.15 26.1711 192.15 24.6561C192.15 23.1411 193.283 21.903 194.657 21.903C196.032 21.903 197.165 23.1411 197.165 24.6561C197.165 26.1711 196.05 27.4092 194.657 27.4092ZM206.766 28.2726C203.089 28.2726 200.117 25.5195 200.117 22.1148C200.117 18.7101 203.089 15.9571 206.766 15.9571C210.443 15.9571 213.415 18.7101 213.415 22.1148C213.415 25.5195 210.443 28.2726 206.766 28.2726Z" fill="#A56354"/>
<g filter="url(#filter1_i_277_2908)">
<path fill-rule="evenodd" clip-rule="evenodd" d="M212.3 8.70773H13.7716C10.4474 8.70773 7.71735 11.6889 7.71735 15.3542C7.71735 19.1335 7.71735 22.4568 7.71735 25.5845L7.71735 36L36 37.5L7.71735 40V54.5324C7.71735 56.6827 10.0574 62.5473 11.3388 67.1248L27 69.5L11.7474 73.4618L7.71735 86.3637C6.64021 89.8172 10.4474 93.0102 13.7716 93.0102H212.3C215.624 93.0102 218.354 90.029 218.354 86.3637V73.136L204.5 70.5L218.354 61.5V40.0503L215.792 29.4616L218.354 15.3542C219.004 11.754 215.624 8.70773 212.3 8.70773ZM194.657 24.1672C193.264 24.1672 192.15 22.9292 192.15 21.4142C192.15 19.8992 193.283 18.6611 194.657 18.6611C196.032 18.6611 197.165 19.8992 197.165 21.4142C197.165 22.9292 196.05 24.1672 194.657 24.1672ZM206.766 25.0306C203.089 25.0306 200.117 22.2776 200.117 18.8729C200.117 15.4682 203.089 12.7152 206.766 12.7152C210.443 12.7152 213.415 15.4682 213.415 18.8729C213.415 22.2776 210.443 25.0306 206.766 25.0306Z" fill="#D68E65"/>
</g>
<path fill-rule="evenodd" clip-rule="evenodd" d="M212.3 8.70773H13.7716C10.4473 8.70773 7.71729 11.6889 7.71729 15.3542V17.4068C7.71729 13.7577 10.4473 10.7603 13.7716 10.7603H212.3C215.012 10.7603 217.76 12.7966 218.317 15.4845L218.336 15.3379C219.004 11.754 215.624 8.70773 212.3 8.70773Z" fill="#A56354"/>
<path fill-rule="evenodd" clip-rule="evenodd" d="M27 69.5L11.3387 62.8082C10.0573 58.2144 7.71729 52.3661 7.71729 50.2158V54.5328C7.71729 56.6831 10.0573 62.5476 11.3387 67.1252L27 69.5Z" fill="#E6BAA3"/>
<defs>
<filter id="filter0_d_277_2908" x="0" y="0" width="227" height="108" filterUnits="userSpaceOnUse" color-interpolation-filters="sRGB">
<feFlood flood-opacity="0" result="BackgroundImageFix"/>
<feColorMatrix in="SourceAlpha" type="matrix" values="0 0 0 0 0 0 0 0 0 0 0 0 0 0 0 0 0 0 127 0" result="hardAlpha"/>
<feOffset dy="2"/>
<feComposite in2="hardAlpha" operator="out"/>
<feColorMatrix type="matrix" values="0 0 0 0 0 0 0 0 0 0 0 0 0 0 0 0 0 0 1 0"/>
<feBlend mode="normal" in2="BackgroundImageFix" result="effect1_dropShadow_277_2908"/>
<feBlend mode="normal" in="SourceGraphic" in2="effect1_dropShadow_277_2908" result="shape"/>
</filter>
<filter id="filter1_i_277_2908" x="7.53125" y="8.70773" width="210.904" height="84.3024" filterUnits="userSpaceOnUse" color-interpolation-filters="sRGB">
<feFlood flood-opacity="0" result="BackgroundImageFix"/>
<feBlend mode="normal" in="SourceGraphic" in2="BackgroundImageFix" result="shape"/>
<feColorMatrix in="SourceAlpha" type="matrix" values="0 0 0 0 0 0 0 0 0 0 0 0 0 0 0 0 0 0 127 0" result="hardAlpha"/>
<feOffset dy="2"/>
<feComposite in2="hardAlpha" operator="arithmetic" k2="-1" k3="1"/>
<feColorMatrix type="matrix" values="0 0 0 0 1 0 0 0 0 1 0 0 0 0 1 0 0 0 0.4 0"/>
<feBlend mode="normal" in2="shape" result="effect1_innerShadow_277_2908"/>
</filter>
</defs>
</svg>
