<svg width="77" height="77" viewBox="0 0 77 77" fill="none" xmlns="http://www.w3.org/2000/svg">
<g filter="url(#filter0_d_277_2689)">
<circle cx="38.2212" cy="38.2212" r="20" fill="white"/>
<circle cx="38.2212" cy="38.2212" r="19.25" stroke="#020605" stroke-width="1.5"/>
</g>
<path d="M33.6711 44.0572C28.041 40.4252 28.358 37.5356 30.7432 33.8382C34.2668 28.3761 42.9977 27.9393 43.3582 27.9339C43.7188 27.9285 44.1389 28.1995 44.3666 28.5844C44.5103 28.9151 47.7119 37.0496 44.1883 42.5117C43.2668 43.9402 40.3937 48.3939 33.6711 44.0572Z" fill="#6FC388"/>
<path d="M33.6711 44.0572C28.041 40.4252 28.358 37.5356 30.7432 33.8382C34.2668 28.3761 42.9977 27.9393 43.3582 27.9339C43.7188 27.9285 44.1389 28.1995 44.3666 28.5844C44.5103 28.9151 47.7119 37.0496 44.1883 42.5117C43.2668 43.9402 40.3937 48.3939 33.6711 44.0572ZM42.7241 30.0238C40.729 30.1649 34.8633 31.141 32.4239 34.9224C30.4723 37.9475 30.1336 39.395 34.7553 42.3765C39.3771 45.358 41.2067 43.4442 42.5077 41.4275C44.9471 37.646 43.4181 31.8996 42.7241 30.0238Z" fill="black"/>
<path d="M32.6412 49.343C32.3891 49.1804 32.2454 48.8497 32.1858 48.5732C32.172 46.4997 32.6508 44.5071 33.3683 42.6819C33.0473 41.3344 32.5541 44.4872 33.7657 42.9878C34.0666 42.7059 33.9827 42.6517 34.0369 42.5677C34.3079 42.1475 34.186 43.2589 34.6062 43.53C35.0263 43.801 36.1919 43.8389 35.8666 44.3431C35.7582 44.5112 38.5095 44.8581 38.0893 44.587C36.8312 46.0055 35.1482 42.6897 35.0307 43.7543C34.4938 45.2402 34.1565 46.8216 34.1808 48.4322C34.1619 49.015 33.7526 49.465 33.1698 49.446C33.0316 49.4758 32.8093 49.4515 32.6412 49.343Z" fill="black"/>
<defs>
<filter id="filter0_d_277_2689" x="18.2212" y="18.2212" width="40" height="41" filterUnits="userSpaceOnUse" color-interpolation-filters="sRGB">
<feFlood flood-opacity="0" result="BackgroundImageFix"/>
<feColorMatrix in="SourceAlpha" type="matrix" values="0 0 0 0 0 0 0 0 0 0 0 0 0 0 0 0 0 0 127 0" result="hardAlpha"/>
<feOffset dy="1"/>
<feComposite in2="hardAlpha" operator="out"/>
<feColorMatrix type="matrix" values="0 0 0 0 0.00784314 0 0 0 0 0.0235294 0 0 0 0 0.0196078 0 0 0 1 0"/>
<feBlend mode="normal" in2="BackgroundImageFix" result="effect1_dropShadow_277_2689"/>
<feBlend mode="normal" in="SourceGraphic" in2="effect1_dropShadow_277_2689" result="shape"/>
</filter>
</defs>
</svg>
