<svg width="32" height="33" viewBox="0 0 32 33" fill="none" xmlns="http://www.w3.org/2000/svg">
<g filter="url(#filter0_di_277_3543)">
<circle cx="16" cy="16" r="16" fill="url(#paint0_linear_277_3543)"/>
<circle cx="16" cy="16" r="15.5" stroke="#020605"/>
</g>
<path d="M23.5 12C23.5 11.5205 23.227 11.1335 22.8806 10.886C22.5331 10.6379 22.0788 10.5 21.6 10.5H19.5H17.4H14.6H10.4C9.92121 10.5 9.46687 10.6379 9.11944 10.886C8.77296 11.1335 8.5 11.5205 8.5 12C8.5 12.4795 8.77296 12.8665 9.11944 13.114C9.46687 13.3621 9.92121 13.5 10.4 13.5H14.6H17.4H21.6C22.0788 13.5 22.5331 13.3621 22.8806 13.114C23.2271 12.8665 23.5 12.4795 23.5 12Z" fill="white" stroke="black"/>
<path d="M23.5 17C23.5 16.5205 23.227 16.1335 22.8806 15.886C22.5331 15.6379 22.0788 15.5 21.6 15.5H19.5H17.4H14.6H10.4C9.92121 15.5 9.46687 15.6379 9.11944 15.886C8.77296 16.1335 8.5 16.5205 8.5 17C8.5 17.4795 8.77296 17.8665 9.11944 18.114C9.46687 18.3621 9.92121 18.5 10.4 18.5H14.6H17.4H21.6C22.0788 18.5 22.5331 18.3621 22.8806 18.114C23.2271 17.8665 23.5 17.4795 23.5 17Z" fill="white" stroke="black"/>
<path d="M23.5 22C23.5 21.5205 23.227 21.1335 22.8806 20.886C22.5331 20.6379 22.0788 20.5 21.6 20.5H19.5H17.4H14.6H10.4C9.92121 20.5 9.46687 20.6379 9.11944 20.886C8.77296 21.1335 8.5 21.5205 8.5 22C8.5 22.4795 8.77296 22.8665 9.11944 23.114C9.46687 23.3621 9.92121 23.5 10.4 23.5H14.6H17.4H21.6C22.0788 23.5 22.5331 23.3621 22.8806 23.114C23.2271 22.8665 23.5 22.4795 23.5 22Z" fill="white" stroke="black"/>
<defs>
<filter id="filter0_di_277_3543" x="0" y="0" width="32" height="33" filterUnits="userSpaceOnUse" color-interpolation-filters="sRGB">
<feFlood flood-opacity="0" result="BackgroundImageFix"/>
<feColorMatrix in="SourceAlpha" type="matrix" values="0 0 0 0 0 0 0 0 0 0 0 0 0 0 0 0 0 0 127 0" result="hardAlpha"/>
<feOffset dy="1"/>
<feComposite in2="hardAlpha" operator="out"/>
<feColorMatrix type="matrix" values="0 0 0 0 0.00784314 0 0 0 0 0.0235294 0 0 0 0 0.0196078 0 0 0 1 0"/>
<feBlend mode="normal" in2="BackgroundImageFix" result="effect1_dropShadow_277_3543"/>
<feBlend mode="normal" in="SourceGraphic" in2="effect1_dropShadow_277_3543" result="shape"/>
<feColorMatrix in="SourceAlpha" type="matrix" values="0 0 0 0 0 0 0 0 0 0 0 0 0 0 0 0 0 0 127 0" result="hardAlpha"/>
<feOffset dy="3"/>
<feComposite in2="hardAlpha" operator="arithmetic" k2="-1" k3="1"/>
<feColorMatrix type="matrix" values="0 0 0 0 0.964706 0 0 0 0 0.996078 0 0 0 0 0.827451 0 0 0 1 0"/>
<feBlend mode="normal" in2="shape" result="effect2_innerShadow_277_3543"/>
</filter>
<linearGradient id="paint0_linear_277_3543" x1="16" y1="0" x2="16" y2="32" gradientUnits="userSpaceOnUse">
<stop stop-color="#D4FA48"/>
<stop offset="1" stop-color="#76CA02"/>
</linearGradient>
</defs>
</svg>
